<svg preserveAspectRatio="none" width="100%" height="100%" overflow="visible" style="display: block;" viewBox="0 0 32 32" fill="none" xmlns="http://www.w3.org/2000/svg">
<g id="Frame">
<path id="Vector" d="M21.3327 28V25.3333C21.3327 23.9188 20.7708 22.5623 19.7706 21.5621C18.7704 20.5619 17.4138 20 15.9993 20H7.99935C6.58486 20 5.22831 20.5619 4.22811 21.5621C3.22792 22.5623 2.66602 23.9188 2.66602 25.3333V28" stroke="var(--stroke-0, #94EAA5)" stroke-width="2.66667" stroke-linecap="round" stroke-linejoin="round"/>
<path id="Vector_2" d="M21.334 4.17065C22.4777 4.46715 23.4905 5.13501 24.2136 6.0694C24.9366 7.0038 25.3289 8.15184 25.3289 9.33332C25.3289 10.5148 24.9366 11.6628 24.2136 12.5972C23.4905 13.5316 22.4777 14.1995 21.334 14.496" stroke="var(--stroke-0, #94EAA5)" stroke-width="2.66667" stroke-linecap="round" stroke-linejoin="round"/>
<path id="Vector_3" d="M29.334 27.9998V25.3331C29.3331 24.1514 28.9398 23.0035 28.2158 22.0695C27.4918 21.1356 26.4782 20.4685 25.334 20.1731" stroke="var(--stroke-0, #94EAA5)" stroke-width="2.66667" stroke-linecap="round" stroke-linejoin="round"/>
<path id="Vector_4" d="M11.9993 14.6667C14.9449 14.6667 17.3327 12.2789 17.3327 9.33333C17.3327 6.38781 14.9449 4 11.9993 4C9.05383 4 6.66602 6.38781 6.66602 9.33333C6.66602 12.2789 9.05383 14.6667 11.9993 14.6667Z" stroke="var(--stroke-0, #94EAA5)" stroke-width="2.66667" stroke-linecap="round" stroke-linejoin="round"/>
</g>
</svg>
