<svg preserveAspectRatio="none" width="100%" height="100%" overflow="visible" style="display: block;" viewBox="0 0 80 80" fill="none" xmlns="http://www.w3.org/2000/svg">
<g id="amazon-svgrepo-com 1">
<path id="Vector" d="M64.8731 60.9477C64.9945 60.7333 65.1384 60.5498 65.3077 60.389C66.2982 59.692 67.4467 59.1276 68.6826 58.7636L68.7645 58.7439C70.325 58.329 72.1422 58.0469 74.0103 57.9566L74.0724 57.9537C74.1796 57.9453 74.3038 57.9396 74.4307 57.9396C74.7835 57.9396 75.1249 57.982 75.4523 58.0581L75.4212 58.0525C77.5602 58.25 78.878 58.6056 79.2787 59.1389C79.4847 59.4747 79.606 59.8811 79.606 60.3185C79.606 60.3551 79.606 60.3918 79.6032 60.4285V60.4229V60.9167C79.4988 63.081 78.9965 65.1043 78.1641 66.947L78.2064 66.8426C77.3514 69.0323 76.0561 70.8835 74.4138 72.3621L74.3997 72.3734C74.2304 72.5371 74.0046 72.6443 73.7563 72.6697H73.7507C73.7366 72.6697 73.7196 72.6725 73.7027 72.6725C73.6152 72.6725 73.5278 72.6584 73.4487 72.6302L73.4544 72.633C73.1581 72.4891 73.1017 72.2379 73.2428 71.8429C74.538 69.3201 75.472 66.3882 75.8812 63.2899L75.8953 63.1516C75.8981 63.1149 75.9009 63.0698 75.9009 63.0246C75.9009 62.6521 75.7937 62.3022 75.6046 62.0116L75.6103 62.02C75.1334 61.4726 73.7987 61.1735 71.5807 61.1735C70.7793 61.1735 69.8255 61.2271 68.7165 61.3259C67.52 61.4726 66.4111 61.6221 65.4234 61.7689C65.3924 61.7717 65.3585 61.7745 65.3218 61.7745C65.1384 61.7745 64.9691 61.7181 64.828 61.6221L64.8308 61.625C64.7321 61.5262 64.7123 61.4698 64.7659 61.371C64.7744 61.2948 64.797 61.2243 64.8336 61.1622V61.165V60.9675L64.8731 60.9477ZM34.7104 37.8142C34.7048 37.9186 34.7019 38.0371 34.7019 38.1585C34.7019 39.7246 35.2325 41.1694 36.1213 42.3179L36.1101 42.3009C36.9848 43.3366 38.2829 43.9912 39.7333 43.9912C39.7954 43.9912 39.8603 43.9912 39.9224 43.9884H39.9139C40.1481 43.9799 40.3682 43.9574 40.5855 43.9179L40.5573 43.9235C40.7153 43.8868 40.9015 43.8614 41.0934 43.8473H41.1047C43.1816 43.2688 44.8521 41.8607 45.7721 40.0124L45.7918 39.9701C46.311 39.1066 46.7174 38.1077 46.9629 37.0438L46.977 36.9733C47.1999 36.2029 47.3579 35.3028 47.42 34.3772L47.4228 34.3377C47.4708 33.6971 47.4708 32.5599 47.4708 31.0305V29.2527C47.231 29.2443 46.9516 29.2414 46.6694 29.2414C44.7139 29.2414 42.8091 29.4615 40.9806 29.8792L41.1527 29.8453C37.5266 30.5226 34.8205 33.6633 34.8205 37.4333C34.8205 37.5772 34.8233 37.7211 34.8318 37.865V37.8452L34.7161 37.7803L34.7104 37.8142ZM22.3564 39.2562C22.3535 39.132 22.3507 38.9853 22.3507 38.8385C22.3507 35.8305 23.2678 33.0368 24.8368 30.7229L24.8029 30.7737C26.4763 28.4146 28.7563 26.5833 31.4173 25.494L31.5189 25.4573C34.3154 24.3088 37.5577 23.4736 40.9411 23.1011L41.1047 23.087C42.3887 22.9346 44.505 22.7484 47.4257 22.5141V21.2951C47.4539 20.9762 47.468 20.6038 47.468 20.2284C47.468 18.3858 47.0899 16.6278 46.4041 15.0362L46.438 15.1209C45.4447 13.8059 43.8842 12.965 42.1262 12.965C41.9767 12.965 41.8271 12.9707 41.6804 12.9819H41.7001H41.1019C39.5471 13.1005 38.1418 13.6507 36.9792 14.5114L37.0018 14.4973C35.8702 15.372 35.0688 16.6278 34.7866 18.0669L34.781 18.1036C34.7245 18.9276 34.1376 19.5992 33.3616 19.7798L33.3503 19.7826L25.0541 18.747C24.2385 18.5495 23.8294 18.1544 23.8294 17.463C23.8322 17.2853 23.8576 17.116 23.9056 16.9551L23.9027 16.9692C24.5038 12.9989 26.7189 9.63523 29.8455 7.51884L29.8935 7.4878C33.0709 5.48147 36.8973 4.2201 41.0031 4.03386L41.0539 4.03104H42.8317C43.1449 4.01129 43.5146 4 43.8842 4C48.371 4 52.4796 5.61692 55.6598 8.3005L55.6316 8.27792C56.0746 8.77175 56.5205 9.26557 56.9663 9.85816C57.3078 10.2899 57.6154 10.7753 57.875 11.2917L57.8975 11.3396C58.191 11.8814 58.4139 12.5107 58.5353 13.1767L58.5409 13.2162C58.7384 14.0514 58.8852 14.5989 58.9839 14.8952C59.1335 15.499 59.2238 16.196 59.2351 16.9128V16.9212C59.269 17.9512 59.3 18.5438 59.3 18.7413V36.1239C59.3 36.1352 59.3 36.1493 59.3 36.1634C59.3 37.3684 59.4975 38.5281 59.8644 39.6117L59.8418 39.5355C60.0901 40.3793 60.4428 41.1186 60.8972 41.7817L60.8802 41.7535L62.5592 43.9715C62.8104 44.2988 62.9712 44.7052 63.0079 45.1482V45.1567C62.9938 45.5912 62.7624 45.9694 62.421 46.1866L62.4153 46.1895C58.4647 49.6462 56.2919 51.5228 55.9533 51.819C55.6372 52.0589 55.2365 52.2028 54.802 52.2028C54.4633 52.2028 54.1473 52.1153 53.8708 51.963L53.8792 51.9686C53.2528 51.4437 52.6884 50.9104 52.1579 50.346L52.1494 50.3348L51.1279 49.1919C50.7667 48.7404 50.4187 48.2795 50.0838 47.8092L49.0962 46.3757C47.0475 48.8533 44.3752 50.7467 41.3192 51.819L41.195 51.8557C39.533 52.3326 37.6226 52.6092 35.6473 52.6092C35.478 52.6092 35.3115 52.6063 35.145 52.6035H35.1704C35.0349 52.6092 34.8769 52.612 34.7189 52.612C31.375 52.612 28.3359 51.3139 26.0756 49.1947L26.0812 49.2004C23.8661 46.909 22.5003 43.7852 22.5003 40.3398C22.5003 40.0519 22.5087 39.7669 22.5285 39.4819L22.5257 39.5214L22.362 39.2703L22.3564 39.2562ZM0.743828 59.7259C0.980864 59.3449 1.35899 59.3167 1.8895 59.6525C12.9342 66.2048 26.2392 70.0764 40.4472 70.0764C40.6307 70.0764 40.8141 70.0764 40.9975 70.0736H40.9693C50.9812 70.0454 60.536 68.1209 69.3006 64.6387L68.7786 64.8221L69.8142 64.3622C70.2685 64.1646 70.5846 64.032 70.7793 63.9332C70.9599 63.8345 71.1772 63.7752 71.4085 63.7752C71.8657 63.7752 72.2664 64.0066 72.5062 64.3565L72.5091 64.3622C72.9041 64.935 72.8054 65.4683 72.114 65.9424C71.2703 66.5688 70.1387 67.2912 68.8012 68.0955C64.8365 70.4686 60.251 72.4157 55.3974 73.694L55.0249 73.7787C50.4874 75.0541 45.2782 75.785 39.8998 75.785C32.3711 75.785 25.181 74.3515 18.5807 71.7413L18.973 71.8796C12.0792 69.1395 6.15613 65.4119 1.04294 60.8038L1.09656 60.8518C0.834127 60.7022 0.647886 60.4398 0.599914 60.1322V60.1266C0.60838 59.9629 0.67046 59.8133 0.769225 59.6976L0.743828 59.7259Z" fill="var(--fill-0, #E0E0E0)"/>
</g>
</svg>
