<svg preserveAspectRatio="none" width="100%" height="100%" overflow="visible" style="display: block;" viewBox="0 0 80 80" fill="none" xmlns="http://www.w3.org/2000/svg">
<g id="snapchat-logo-bold-svgrepo-com 1">
<path id="Vector" d="M77.9264 58.371C77.8308 57.7665 77.5879 57.1949 77.219 56.7067C76.8501 56.2184 76.3666 55.8286 75.8112 55.5716C75.3777 55.363 67.8342 51.5891 63.7804 40.5267L68.8929 38.4817C69.3501 38.2988 69.7668 38.0277 70.1192 37.6837C70.4717 37.3397 70.7529 36.9297 70.9469 36.4771C71.1409 36.0244 71.2438 35.538 71.2498 35.0456C71.2558 34.5532 71.1647 34.0644 70.9818 33.6072C70.7989 33.1499 70.5277 32.7332 70.1837 32.3808C69.8398 32.0284 69.4298 31.7471 68.9771 31.5531C68.5245 31.3592 68.0381 31.2563 67.5456 31.2503C67.0532 31.2443 66.5644 31.3353 66.1072 31.5182L61.8875 33.2062C61.4537 30.4925 61.2405 27.7481 61.25 25C61.25 19.3641 59.0112 13.9591 55.0261 9.97398C51.0409 5.98883 45.6359 3.75 40 3.75C34.3642 3.75 28.9592 5.98883 24.974 9.97398C20.9889 13.9591 18.75 19.3641 18.75 25C18.7595 27.7481 18.5463 30.4924 18.1125 33.206L13.8927 31.5182C13.4355 31.3354 12.9467 31.2443 12.4543 31.2503C11.9619 31.2563 11.4755 31.3593 11.0228 31.5533C10.1087 31.945 9.38766 32.6839 9.0183 33.6073C8.64894 34.5307 8.66154 35.5631 9.05332 36.4772C9.44509 37.3913 10.184 38.1124 11.1074 38.4817L16.2198 40.5266C12.1781 51.5556 4.66802 55.3403 4.19317 55.5695C3.63938 55.8298 3.15772 56.2217 2.79019 56.711C2.42267 57.2002 2.18046 57.772 2.08469 58.3764C1.98892 58.9808 2.0425 59.5994 2.24076 60.1784C2.43902 60.7573 2.77593 61.2789 3.2221 61.6977C5.78954 64.1074 9.2365 64.3375 12.2776 64.5407C13.8697 64.6469 15.6739 64.7674 16.5226 65.2347C17.3324 65.6802 18.3802 67.1167 19.3046 68.3838C21.0285 70.7471 23.1739 73.688 26.6417 74.5755C27.3216 74.7489 28.0206 74.8359 28.7223 74.8346C31.2842 74.8346 33.6716 73.7219 35.8312 72.7154C37.3774 71.9949 38.9759 71.25 40 71.25C41.0242 71.25 42.623 71.9949 44.169 72.7154C46.9033 73.9896 50.0019 75.4358 53.3588 74.5752C56.8262 73.688 58.9716 70.7471 60.6955 68.3841C61.6199 67.1167 62.6677 65.6802 63.4775 65.2347C64.3262 64.7674 66.1307 64.6469 67.7225 64.5407C70.7637 64.3375 74.2106 64.1074 76.7781 61.6977C77.2273 61.2796 77.5669 60.7576 77.7671 60.1775C77.9673 59.5975 78.022 58.9771 77.9264 58.371ZM59.8607 58.6642C57.5908 59.9136 56.0212 62.0654 54.6363 63.9639C53.6202 65.3567 52.3557 67.0905 51.4997 67.3093C50.7412 67.5024 48.7735 66.5869 47.3371 65.9174C45.1569 64.9014 42.6859 63.75 40 63.75C37.3142 63.75 34.8432 64.9014 32.6632 65.9174C31.2269 66.5872 29.2612 67.503 28.5007 67.3096C27.6444 67.0904 26.3799 65.3568 25.3638 63.9639C23.9789 62.0654 22.4094 59.9139 20.1397 58.6642C18.3411 57.6742 16.3109 57.3471 14.3801 57.1762C19.7573 51.8662 26.25 41.9461 26.25 25C26.25 21.3533 27.6987 17.8559 30.2773 15.2773C32.8559 12.6987 36.3533 11.25 40 11.25C43.6468 11.25 47.1441 12.6987 49.7228 15.2773C52.3014 17.8559 53.75 21.3533 53.75 25C53.75 41.9461 60.2428 51.8661 65.6202 57.1762C63.6893 57.3471 61.6593 57.6743 59.8607 58.6642Z" fill="var(--fill-0, #E0E0E0)"/>
</g>
</svg>
