<svg width="70" height="16" viewBox="0 0 70 16" fill="none" xmlns="http://www.w3.org/2000/svg">
<path d="M66.3613 13.88L69.4413 14.32V15H61.3613V14.32L64.4813 13.88C64.5013 12.72 64.5213 11.54 64.5213 10.38V2.3L61.6013 2.58V1.82L66.1013 0.660004L66.4013 0.880003L66.3213 4.02V10.38C66.3213 11.54 66.3413 12.72 66.3613 13.88Z" fill="white"/>
<path d="M51.6046 7.94C51.6046 13.08 52.8646 14.44 54.2646 14.44C55.6046 14.44 56.8646 13.08 56.8646 7.94C56.8646 2.8 55.6046 1.42 54.2646 1.42C52.8646 1.42 51.6046 2.78 51.6046 7.94ZM54.2646 0.559998C56.5646 0.559998 58.8246 2.56 58.8246 7.94C58.8246 13.34 56.5646 15.28 54.2646 15.28C51.9046 15.28 49.6646 13.34 49.6646 7.94C49.6646 2.56 51.9046 0.559998 54.2646 0.559998Z" fill="white"/>
<path d="M41.4998 11.04H42.6998L42.6598 14.26C41.2998 15 39.8398 15.32 38.2798 15.32C33.8598 15.32 30.8398 12.22 30.8398 7.66C30.8398 3.18 33.9998 0 38.2798 0C39.5398 0 41.0198 0.24 42.4598 1.08L42.4998 4.3H41.2998L40.7598 1.5C39.9998 1.12 39.2598 0.960001 38.5198 0.960001C35.4998 0.960001 33.0998 3.3 33.0998 7.66C33.0998 12.04 35.2998 14.36 38.4398 14.36C39.2598 14.36 40.1198 14.22 40.9598 13.82L41.4998 11.04Z" fill="white"/>
<path d="M17.3967 7.66C17.3967 11.12 18.7767 14.38 21.8367 14.38C24.8767 14.38 26.2167 11.12 26.2167 7.66C26.2167 4.22 24.8767 0.960001 21.8367 0.960001C18.7767 0.960001 17.3967 4.22 17.3967 7.66ZM21.8367 0C25.2367 0 28.4967 2.72 28.4967 7.66C28.4967 12.48 25.2767 15.32 21.8367 15.32C18.3767 15.32 15.1367 12.64 15.1367 7.66C15.1367 2.86 18.3967 0 21.8367 0Z" fill="white"/>
<path d="M13.54 8.02V8.78L12.22 8.9C12.18 10.24 12.16 11.62 12.16 13.06V14.04C10.64 14.84 9.18 15.32 7.4 15.32C3 15.32 0 12.14 0 7.66C0 3.22 3.06 0 7.46 0C9.3 0 10.64 0.34 11.84 1.08L11.88 4.32H10.7L10.16 1.6C9.4 1.16 8.6 0.960001 7.68 0.960001C4.54 0.960001 2.26 3.4 2.26 7.66C2.26 11.86 4.38 14.36 7.74 14.36C8.62 14.36 9.38 14.22 10.2 13.92V13.06C10.2 11.7 10.18 10.32 10.16 8.96L7.84 8.78V8.02H13.54Z" fill="white"/>
</svg>
