<svg preserveAspectRatio="none" width="100%" height="100%" overflow="visible" style="display: block;" viewBox="0 0 70.2945 79.8439" fill="none" xmlns="http://www.w3.org/2000/svg">
<g id="c2be471c56fc5b4dd571614bb3052f50">
<path id="Vector" d="M61.5891 15.6185C61.5891 15.6185 61.5227 15.2578 61.3181 15.1272C61.1133 14.9966 60.8912 14.9713 60.8912 14.9713L54.4722 14.4936L49.7491 9.79783C49.5698 9.66127 49.363 9.58143 49.1527 9.53846C48.6497 9.44096 47.9733 9.55799 47.8484 9.58721L45.3981 10.3455C44.3337 7.2033 42.8797 4.96549 41.0552 3.67112C39.7061 2.71783 38.2198 2.31252 36.6234 2.4333C36.2881 1.9869 35.9188 1.59705 35.5142 1.26955C33.7433 -0.161228 31.4588 -0.383416 28.7258 0.606897C20.5298 3.58346 17.0505 14.2052 15.7961 19.5111L8.65297 21.7236C8.65297 21.7236 6.97062 22.2031 6.57594 22.6749C6.14234 23.1933 6.05937 24.5969 6.05937 24.5969L0 71.3292L45.6495 79.8439L70.2945 74.5106L61.5891 15.6185ZM36.2919 13.1663L28.3992 15.6088C29.445 11.5133 31.4547 7.32815 35.2969 5.69658C36.095 7.78627 36.3153 10.6458 36.2919 13.1663ZM29.6623 3.18783C31.3319 2.58158 32.6145 2.60877 33.5794 3.25987C28.4294 5.60877 26.1808 11.5269 25.2102 16.5969L18.8906 18.5539C20.3019 13.4508 23.4509 5.44315 29.6623 3.18783ZM34.0853 37.628C33.7237 37.4525 33.2969 37.2653 32.8144 37.088C32.3358 36.9088 31.8027 36.7391 31.2247 36.5988C30.6525 36.4585 30.0366 36.3453 29.3875 36.2791C28.7442 36.2108 28.0688 36.1894 27.3691 36.2303C26.7269 36.2694 26.145 36.3842 25.6333 36.5675C25.1245 36.7469 24.6841 36.9964 24.3214 37.3064C23.9589 37.6144 23.6733 37.9828 23.4716 38.4078C23.2717 38.8308 23.1538 39.3064 23.1314 39.8347C23.1139 40.2266 23.1753 40.6008 23.3127 40.9652C23.45 41.3317 23.6655 41.6903 23.9578 42.0452C24.2522 42.4038 24.6245 42.7585 25.0777 43.1211C25.5328 43.4896 26.07 43.86 26.6897 44.2478C27.5591 44.8053 28.448 45.433 29.293 46.1522C30.1506 46.8833 30.9616 47.7078 31.6584 48.6474C32.3642 49.5967 32.9508 50.6611 33.3466 51.8539C33.7442 53.0586 33.948 54.3861 33.8838 55.848C33.7795 58.2399 33.2552 60.302 32.3886 62.0116C31.5328 63.6997 30.3516 65.0252 28.9286 65.9881C27.5369 66.9277 25.9247 67.5105 24.1714 67.7444C22.4688 67.9724 20.6431 67.8711 18.7602 67.4558C18.7464 67.4538 18.7308 67.448 18.7153 67.4441C18.7006 67.4422 18.6859 67.4383 18.6714 67.4364C18.6569 67.4325 18.6422 67.4285 18.6266 67.4247C18.6119 67.4227 18.5972 67.4188 18.5817 67.415C17.6988 67.2006 16.8467 66.9238 16.0466 66.5981C15.2581 66.2805 14.5183 65.9178 13.8439 65.5261C13.1792 65.1383 12.5769 64.723 12.0555 64.2924C11.5398 63.8655 11.1013 63.4269 10.7572 62.9844L12.8341 56.0917C13.185 56.388 13.6137 56.7253 14.102 57.0663C14.5952 57.4152 15.1498 57.77 15.7433 58.1033C16.3436 58.4386 16.985 58.7486 17.6448 59.0019C18.3134 59.2574 19.0016 59.4561 19.6837 59.5555C20.2861 59.6433 20.8241 59.6256 21.2948 59.5205C21.7695 59.4131 22.1739 59.2164 22.5055 58.9453C22.8388 58.6783 23.097 58.3371 23.2773 57.9453C23.4577 57.5497 23.56 57.1072 23.5795 56.6335C23.6009 56.1578 23.558 55.7114 23.4381 55.2786C23.3192 54.8441 23.1244 54.4249 22.8445 54.0039C22.5647 53.5847 22.2022 53.1638 21.7433 52.7291C21.2891 52.2983 20.7442 51.8538 20.0991 51.3822C19.3047 50.7896 18.56 50.1483 17.8925 49.4505C17.2336 48.7603 16.6489 48.0138 16.1703 47.2049C15.6967 46.4017 15.3234 45.5344 15.0817 44.591C14.8409 43.6533 14.73 42.6377 14.7766 41.5305C14.8584 39.6806 15.228 37.975 15.8469 36.441C16.4725 34.8892 17.3584 33.4975 18.4695 32.2986C19.6031 31.0764 20.9813 30.0452 22.5698 29.2519C24.2044 28.435 26.0728 27.8621 28.1439 27.5911C29.1048 27.4642 30.027 27.4058 30.8983 27.4021C31.7833 27.3981 32.6147 27.4508 33.3797 27.5483C34.1555 27.6477 34.8622 27.7919 35.4889 27.9692C36.1205 28.1485 36.6683 28.3591 37.1195 28.5891L34.0853 37.628ZM39.0278 12.3203C39.0239 12.0105 39.0161 11.6966 39.0045 11.3769C38.9128 8.9208 38.5794 6.85252 38.0122 5.17612C38.6302 5.23846 39.1916 5.44315 39.7042 5.8058C41.1331 6.81752 42.1622 8.8544 42.8873 11.1253L39.0278 12.3203Z" fill="var(--fill-0, #E0E0E0)"/>
</g>
</svg>
