<svg preserveAspectRatio="none" width="100%" height="100%" overflow="visible" style="display: block;" viewBox="0 0 80 80" fill="none" xmlns="http://www.w3.org/2000/svg">
<g id="meta-logo-facebook-svgrepo-com 1">
<path id="Vector" d="M8.54093 48.9948C8.54093 35.7487 15.089 21.9267 22.7758 21.9267C27.0463 21.9267 30.4626 24.5183 35.8719 32.2932C30.7473 40.356 27.6157 45.2513 27.6157 45.2513C20.7829 56.1937 18.5053 58.4974 14.8043 58.4974C11.1032 58.7853 8.54093 55.3298 8.54093 48.9948ZM53.2384 44.0995L48.3986 36.0366C47.2598 34.0209 45.8363 32.0052 44.6975 30.2775C48.968 23.6545 52.3843 20.199 56.6548 20.199C65.1957 20.199 72.0285 33.1571 72.0285 49.2827C72.0285 55.3298 70.0356 58.7853 66.0498 58.7853C62.0641 58.7853 60.6406 56.1937 53.2384 44.0995ZM40.9964 24.5183C34.7331 16.1675 29.3238 13 23.0605 13C9.96441 13 0 30.5654 0 48.9948C0 60.5131 5.40925 67.712 14.5196 67.712C21.0676 67.712 25.6228 64.5445 34.1637 49.5707C34.1637 49.5707 37.5801 43.2356 40.1423 38.9162C40.9964 40.356 41.8505 41.7958 42.7046 43.5236L46.6904 50.4346C54.3772 63.6806 58.6477 68 66.3345 68C75.1601 68 80 60.5131 80 48.7068C79.7153 29.1257 69.4662 13 57.2242 13C50.6762 13 45.5516 18.1832 40.9964 24.5183Z" fill="var(--fill-0, #E0E0E0)"/>
</g>
</svg>
