<svg preserveAspectRatio="none" width="100%" height="100%" overflow="visible" style="display: block;" viewBox="0 0 80 80" fill="none" xmlns="http://www.w3.org/2000/svg">
<g id="tiktok-svgrepo-com 1">
<path id="Vector" d="M41.6401 2.57251C45.7326 2.51001 49.7951 2.54251 53.8551 2.51001C53.9901 7.58751 56.0501 12.1575 59.3276 15.5425L59.3226 15.5375C62.8501 18.715 67.4401 20.775 72.5001 21.125L72.5701 21.13V33.72C67.7901 33.6 63.2951 32.4975 59.2426 30.6025L59.4476 30.6875C57.4876 29.745 55.8301 28.7775 54.2551 27.6975L54.3851 27.7825C54.3551 36.905 54.4151 46.0275 54.3226 55.1175C54.0651 59.75 52.5251 63.975 50.0551 67.5025L50.1051 67.425C45.9751 73.34 39.2851 77.2225 31.6776 77.4525H31.6426C31.3351 77.4675 30.9726 77.475 30.6076 77.475C26.2826 77.475 22.2401 76.27 18.7951 74.1775L18.8951 74.235C12.6251 70.4625 8.30007 64.0075 7.50007 56.5L7.49007 56.3975C7.42757 54.835 7.39757 53.2725 7.46007 51.7425C8.68507 39.795 18.6951 30.5525 30.8626 30.5525C32.2301 30.5525 33.5701 30.67 34.8726 30.8925L34.7326 30.8725C34.7951 35.495 34.6076 40.12 34.6076 44.7425C33.5501 44.36 32.3301 44.1375 31.0576 44.1375C26.3876 44.1375 22.4151 47.1225 20.9451 51.29L20.9226 51.365C20.5901 52.4325 20.3976 53.66 20.3976 54.93C20.3976 55.445 20.4301 55.955 20.4901 56.455L20.4851 56.395C21.3151 61.51 25.7001 65.37 30.9876 65.37C31.1401 65.37 31.2901 65.3675 31.4401 65.36H31.4176C35.0751 65.25 38.2501 63.2825 40.0451 60.375L40.0701 60.33C40.7376 59.4 41.1951 58.275 41.3476 57.0525L41.3501 57.0175C41.6626 51.425 41.5376 45.865 41.5676 40.2725C41.5976 27.6825 41.5376 15.1225 41.6301 2.56501L41.6401 2.57251Z" fill="var(--fill-0, #E0E0E0)"/>
</g>
</svg>
