<svg preserveAspectRatio="none" width="100%" height="100%" overflow="visible" style="display: block;" viewBox="0 0 79.9385 71.7281" fill="none" xmlns="http://www.w3.org/2000/svg">
<g id="Group">
<path id="Vector" d="M1.83908 52.0016L28.3991 6.53125C31.7729 8.51746 48.7853 17.9326 51.5329 19.723L24.9729 65.1961C22.068 69.0333 -1.84092 57.825 1.83908 51.9988V52.0016Z" fill="var(--fill-0, white)" fill-opacity="0.6"/>
<path id="Vector_2" d="M78.1505 52.0006L51.5905 6.53297C47.8774 0.353663 39.8802 -1.89185 33.3119 1.7578C26.7436 5.40746 24.7436 13.2695 28.4567 19.7247L55.0167 65.1978C58.7299 71.3743 66.7271 73.6199 73.2954 69.9702C79.5767 66.3206 81.8636 58.1799 78.1505 52.0061V52.0006Z" fill="var(--fill-0, #E0E0E0)"/>
<path id="Vector_3" d="M13.3324 71.7278C20.6957 71.7278 26.6648 65.9068 26.6648 58.7264C26.6648 51.5459 20.6957 45.725 13.3324 45.725C5.96912 45.725 0 51.5459 0 58.7264C0 65.9068 5.96912 71.7278 13.3324 71.7278Z" fill="var(--fill-0, #E0E0E0)"/>
</g>
</svg>
