<svg preserveAspectRatio="none" width="100%" height="100%" overflow="visible" style="display: block;" viewBox="0 0 80 80" fill="none" xmlns="http://www.w3.org/2000/svg">
<g id="Google Analytics" clip-path="url(#clip0_0_61)">
<path id="Vector" d="M76.1306 69.9876C76.1374 71.2933 75.8871 72.5875 75.3938 73.7963C74.9005 75.0052 74.174 76.1051 73.2556 77.0331C72.3372 77.9612 71.2451 78.6993 70.0415 79.2053C68.8378 79.7113 67.5463 79.9752 66.2407 79.9821C65.8317 79.9853 65.4229 79.9622 65.0169 79.9128C62.5554 79.5488 60.3119 78.2972 58.7092 76.3939C57.1065 74.4905 56.2551 72.0667 56.3155 69.5792V10.4025C56.2565 7.91275 57.1104 5.48744 58.7163 3.58388C60.3221 1.68032 62.5689 0.430049 65.033 0.0688264C66.431 -0.0966294 67.8482 0.0370467 69.1906 0.460988C70.5329 0.884929 71.7698 1.58945 72.8192 2.52781C73.8685 3.46617 74.7064 4.61692 75.2772 5.90374C75.8479 7.19056 76.1386 8.58404 76.1298 9.99173L76.1306 69.9876Z" fill="var(--fill-0, #999999)"/>
<path id="Vector_2" d="M13.7841 60.1896C15.7439 60.1896 17.6597 60.7707 19.2892 61.8596C20.9188 62.9484 22.1888 64.496 22.9388 66.3066C23.6888 68.1173 23.8851 70.1096 23.5027 72.0318C23.1204 73.954 22.1766 75.7196 20.7908 77.1054C19.405 78.4912 17.6394 79.435 15.7172 79.8173C13.7951 80.1997 11.8027 80.0034 9.99203 79.2534C8.18138 78.5034 6.6338 77.2334 5.54498 75.6038C4.45616 73.9743 3.875 72.0585 3.875 70.0986C3.875 67.4706 4.91899 64.9502 6.7773 63.0919C8.63561 61.2336 11.156 60.1896 13.7841 60.1896ZM39.8552 30.1563C37.2103 30.3012 34.7256 31.4697 32.9271 33.4143C31.1286 35.359 30.1574 37.9272 30.2192 40.5753V67.1902C30.2192 74.414 33.3983 78.7977 38.0552 79.7285C39.3327 79.9877 40.6488 79.9927 41.9282 79.7431C43.2076 79.4935 44.4254 78.9943 45.5118 78.274C46.5982 77.5536 47.5321 76.6263 48.26 75.5449C48.988 74.4635 49.4957 73.2493 49.7542 71.9717C49.8892 71.3137 49.9554 70.6434 49.9519 69.9717V40.1184C49.9545 38.8126 49.6999 37.5192 49.2026 36.3118C48.7053 35.1045 47.975 34.0069 47.0535 33.0818C46.132 32.1567 45.0373 31.4222 43.8319 30.9203C42.6265 30.4183 41.334 30.1587 40.0282 30.1563H39.8552Z" fill="var(--fill-0, #E0E0E0)"/>
</g>
<defs>
<clipPath id="clip0_0_61">
<rect width="80" height="80" fill="white"/>
</clipPath>
</defs>
</svg>
