<svg preserveAspectRatio="none" width="100%" height="100%" overflow="visible" style="display: block;" viewBox="0 0 78 77.9867" fill="none" xmlns="http://www.w3.org/2000/svg">
<g id="layer1">
<path id="path4642" d="M39 0C28.4093 0 27.0816 0.0673369 22.9223 0.238505C18.7715 0.428097 15.9423 1.0776 13.462 2.04204C10.8975 3.03829 8.71388 4.37764 6.54597 6.54567C4.378 8.7137 3.05113 10.8854 2.0547 13.4497C1.09042 15.9303 0.428456 18.771 0.239116 22.9218C0.0489158 27.0811 0 28.4088 0 38.9995C0 49.5907 0.0489002 50.9178 0.239116 55.0771C0.428706 59.2279 1.09042 62.057 2.0547 64.5376C3.05113 67.1019 4.378 69.2736 6.54597 71.4416C8.71388 73.6096 10.8975 74.9478 13.462 75.9446C15.9423 76.9085 18.7715 77.5708 22.9223 77.7604C27.0816 77.95 28.4093 77.9867 39 77.9867C49.5907 77.9867 50.9184 77.9256 55.0777 77.7604C59.2284 77.5708 62.0696 76.9085 64.5499 75.9446C67.1144 74.9478 69.2861 73.6096 71.454 71.4416C73.622 69.2736 74.9488 67.1019 75.9452 64.5376C76.9095 62.057 77.5715 59.2279 77.7609 55.0771C77.9511 50.9178 78 49.5907 78 38.9995C78 28.4088 77.9511 27.0811 77.7609 22.9218C77.5713 18.771 76.9095 15.9303 75.9452 13.4497C74.9488 10.8854 73.622 8.7137 71.454 6.54567C69.2861 4.37764 67.1144 3.03829 64.5499 2.04204C62.0696 1.0776 59.2284 0.428097 55.0777 0.238505C50.9184 0.0489158 49.5907 0 39 0ZM39 7.02331C49.4124 7.02331 50.643 7.0844 54.7552 7.24959C58.5572 7.42084 60.6315 8.06543 62.0057 8.59934C63.826 9.30693 65.1205 10.1497 66.485 11.5141C67.8497 12.8785 68.6923 14.1732 69.3995 15.9933C69.9334 17.3675 70.5757 19.4419 70.7493 23.2435C70.9365 27.3557 70.9762 28.5868 70.9762 38.9988C70.9762 49.4115 70.9334 50.6426 70.7493 54.7542C70.5756 58.5564 69.9334 60.6186 69.3995 61.9928C68.6923 63.8128 67.8497 65.1186 66.485 66.4836C65.1205 67.848 63.826 68.6908 62.0057 69.3983C60.6315 69.9304 58.5572 70.5634 54.7552 70.7365C50.6436 70.9261 49.4133 70.9627 39 70.9627C28.5867 70.9627 27.3564 70.9017 23.2448 70.7365C19.4428 70.5652 17.3804 69.9322 16.0062 69.3983C14.1859 68.6908 12.8795 67.848 11.515 66.4836C10.1506 65.1186 9.30796 63.8128 8.6005 61.9928C8.06659 60.6186 7.43624 58.5564 7.26268 54.7542C7.07553 50.6426 7.03578 49.4115 7.03578 38.9988C7.03578 28.5868 7.07859 27.3557 7.26268 23.2435C7.43637 19.4419 8.06659 17.3675 8.6005 15.9933C9.30796 14.1732 10.1506 12.8785 11.515 11.5141C12.8795 10.1497 14.1859 9.30693 16.0062 8.59934C17.3804 8.06727 19.4428 7.42327 23.2448 7.24959C27.357 7.06001 28.5876 7.02331 39 7.02331ZM59.8198 13.4974C57.2355 13.4974 55.1374 15.5951 55.1374 18.1796C55.1374 20.7641 57.2355 22.8619 59.8198 22.8619C62.4044 22.8619 64.5021 20.7641 64.5021 18.1796C64.5021 15.5951 62.4044 13.4974 59.8198 13.4974ZM39 18.968C27.9406 18.968 18.9805 27.9404 18.9805 38.9995C18.9805 50.0592 27.9406 59.0187 39 59.0187C50.0594 59.0187 59.0314 50.0592 59.0314 38.9995C59.0314 27.9404 50.0594 18.968 39 18.968ZM39 26.0035C46.179 26.0035 51.9959 31.8208 51.9959 38.9995C51.9959 46.1787 46.179 51.9954 39 51.9954C31.821 51.9954 26.004 46.1787 26.004 38.9995C26.004 31.8208 31.821 26.0035 39 26.0035Z" fill="var(--fill-0, #E0E0E0)"/>
</g>
</svg>
