<svg preserveAspectRatio="none" width="100%" height="100%" overflow="visible" style="display: block;" viewBox="0 0 78.6525 61.5064" fill="none" xmlns="http://www.w3.org/2000/svg">
<g id="Group">
<path id="Vector" d="M21.117 10.7216C15.5394 10.6782 14.7581 16.1255 14.7364 20.2056C14.7147 24.3073 15.4309 29.8197 21.0084 29.8414C26.586 29.8631 27.3673 24.3724 27.389 20.2707C27.4107 16.1906 26.6945 10.7433 21.117 10.7216ZM20.9433 40.5624C6.42441 40.4756 -0.0646224 30.8398 0.00048489 20.1187C0.0655922 9.39775 6.66313 -0.0862184 21.1821 0.000591322C35.701 0.0874011 42.19 9.63647 42.1249 20.3575C42.0598 31.0785 35.4406 40.6276 20.9433 40.5624Z" fill="var(--fill-0, #E0E0E0)"/>
<path id="Vector_2" d="M57.6658 10.7216C52.0883 10.6782 51.307 16.1255 51.2853 20.2056C51.2636 24.3073 51.9797 29.798 57.5573 29.8414C63.1348 29.8848 63.9161 24.3724 63.9378 20.2707C63.9595 16.1906 63.2433 10.7433 57.6658 10.7216ZM57.4922 40.5624C42.9949 40.4756 36.4842 30.8398 36.5493 20.1187C36.6144 9.39775 43.212 -0.0862184 57.7092 0.000591322C72.2064 0.0874011 78.7171 9.63647 78.652 20.3575C78.6086 31.0785 72.0111 40.6276 57.4922 40.5624Z" fill="var(--fill-0, #E0E0E0)"/>
<path id="Vector_3" d="M5.53407 40.5625C15.9946 45.2285 26.8459 47.312 38.6737 47.3771C51.0875 47.4422 60.528 45.0983 72.4427 40.5625L72.3776 53.432C61.7 58.7274 50.1326 61.5705 38.5869 61.5053C26.0212 61.4402 16.9496 58.8576 5.44727 53.432L5.53407 40.5625Z" fill="var(--fill-0, #E0E0E0)"/>
</g>
</svg>
